<svg 
sodipodi:docname="logo.svg"
xmlns="http://www.w3.org/2000/svg" 
version="1.1" 
xmlns:xlink="http://www.w3.org/1999/xlink" 
xmlns:svgjs="http://svgjs.dev/svgjs" 
width="2000" 
height="1952" 
viewBox="0 0 2000 1952">
<g transform="matrix(1,0,0,1,0.14771408396984498,0.7902834008096988)"><svg viewBox="0 0 253 247" data-background-color="#ffffff" preserveAspectRatio="xMidYMid meet" height="1952" width="2000" xmlns="http://www.w3.org/2000/svg" xmlns:xlink="http://www.w3.org/1999/xlink"><g id="tight-bounds" transform="matrix(1,0,0,1,-0.01868583162217874,-0.09999999999999432)"><svg viewBox="0 0 253.03737166324436 247.2" height="247.2" width="253.03737166324436"><g><svg viewBox="0 0 253.03737166324436 247.2" height="247.2" width="253.03737166324436"><g><svg viewBox="0 0 253.03737166324436 247.2" height="247.2" width="253.03737166324436"><g><svg viewBox="0 0 253.03737166324436 247.2" height="247.2" width="253.03737166324436"><g id="textblocktransform"><svg viewBox="0 0 253.03737166324436 247.2" height="247.2" width="253.03737166324436" id="textblock"><g><svg viewBox="0 0 253.03737166324436 247.2" height="247.2" width="253.03737166324436"><g transform="matrix(1,0,0,1,0,0)"><svg width="253.03737166324436" viewBox="0.6 -41.85 49.85 48.7" height="247.2" data-palette-color="url(#1bb2f1dc-abda-4742-9cce-1f2b70e9a8db)"></svg></g></svg></g></svg></g></svg></g><g></g></svg></g></svg></g><defs></defs><mask id="3800d3dc-a292-4f80-9e5f-186d14d623c1"><g id="SvgjsG3903"><svg viewBox="0 0 253.03737166324436 247.2" height="247.2" width="253.03737166324436"><g><svg viewBox="0 0 253.03737166324436 247.2" height="247.2" width="253.03737166324436"><g><svg viewBox="0 0 253.03737166324436 247.2" height="247.2" width="253.03737166324436"><g><svg viewBox="0 0 253.03737166324436 247.2" height="247.2" width="253.03737166324436"><g id="SvgjsG3902"><svg viewBox="0 0 253.03737166324436 247.2" height="247.2" width="253.03737166324436" id="SvgjsSvg3901"><g><svg viewBox="0 0 253.03737166324436 247.2" height="247.2" width="253.03737166324436"><g transform="matrix(1,0,0,1,0,0)"><svg width="253.03737166324436" viewBox="0.6 -41.85 49.85 48.7" height="247.2" data-palette-color="url(#1bb2f1dc-abda-4742-9cce-1f2b70e9a8db)"><path d="M12.2-41.85L12.2-37.5Q10.35-37.5 9.63-36.8 8.9-36.1 8.9-34.3L8.9-34.3 8.9-23.55Q8.9-20.65 7.95-19.38 7-18.1 4.75-17.45L4.75-17.45Q6.95-16.85 7.95-15.58 8.95-14.3 8.95-11.45L8.95-11.45 8.95-0.7Q8.95 1.15 9.65 1.83 10.35 2.5 12.2 2.5L12.2 2.5 12.2 6.85Q8.8 6.85 6.85 6 4.9 5.15 4.13 3.48 3.35 1.8 3.35-0.9L3.35-0.9 3.35-11.25Q3.35-13.3 2.78-14.13 2.2-14.95 0.6-14.95L0.6-14.95 0.6-20Q2.15-20 2.75-20.85 3.35-21.7 3.35-23.75L3.35-23.75 3.35-34.1Q3.35-36.85 4.13-38.53 4.9-40.2 6.83-41.03 8.75-41.85 12.2-41.85L12.2-41.85ZM24.2-34.55Q30.45-34.55 33.72-31.78 37-29 37-23.6L37-23.6Q37-17.85 33.77-15 30.55-12.15 24.65-12.15L24.65-12.15 22.65-12.15 22.65 0 16.3 0 16.3-34.55 24.2-34.55ZM24.3-16.9Q27.55-16.9 29-18.4 30.45-19.9 30.45-23.55L30.45-23.55Q30.45-26.85 29-28.35 27.55-29.85 24.35-29.85L24.35-29.85 22.65-29.85 22.65-16.9 24.3-16.9ZM38.85-41.85Q42.3-41.85 44.22-41.03 46.15-40.2 46.95-38.53 47.75-36.85 47.75-34.1L47.75-34.1 47.75-23.75Q47.75-21.7 48.32-20.85 48.9-20 50.45-20L50.45-20 50.45-14.95Q48.9-14.95 48.32-14.13 47.75-13.3 47.75-11.25L47.75-11.25 47.75-0.9Q47.75 1.8 46.95 3.48 46.15 5.15 44.22 6 42.3 6.85 38.85 6.85L38.85 6.85 38.85 2.5Q40.75 2.5 41.45 1.83 42.15 1.15 42.15-0.7L42.15-0.7 42.15-11.45Q42.15-14.3 43.12-15.55 44.1-16.8 46.35-17.45L46.35-17.45Q44.05-18.15 43.1-19.4 42.15-20.65 42.15-23.55L42.15-23.55 42.15-34.3Q42.15-36.1 41.45-36.8 40.75-37.5 38.95-37.5L38.95-37.5 38.85-41.85Z" opacity="1" transform="matrix(1,0,0,1,0,0)" fill="white" class="wordmark-text-0" id="SvgjsPath3900"></path></svg></g></svg></g></svg></g></svg></g><g></g></svg></g></svg></g><defs><mask></mask></defs></svg><rect width="253.03737166324436" height="247.2" fill="black" stroke="none" visibility="hidden"></rect></g></mask><linearGradient x1="0" x2="1" y1="0.548" y2="0.55" id="1bb2f1dc-abda-4742-9cce-1f2b70e9a8db"><stop stop-color="#ff6cab" offset="0"></stop><stop stop-color="#7366ff" offset="1"></stop></linearGradient><rect width="253.03737166324436" height="247.2" fill="url(#1bb2f1dc-abda-4742-9cce-1f2b70e9a8db)" mask="url(#3800d3dc-a292-4f80-9e5f-186d14d623c1)" data-fill-palette-color="primary"></rect></svg><rect width="253.03737166324436" height="247.2" fill="none" stroke="none" visibility="hidden"></rect></g></svg></g></svg>